<svg xmlns="http://www.w3.org/2000/svg" width="243.192" height="242.981" viewBox="0 0 243.192 242.981">
  <g id="Group_150" data-name="Group 150" transform="translate(-109.554 -2945.031)">
    <g id="Layer_2" data-name="Layer 2" transform="translate(90.539 2926.085)">
      <g id="Layer_1" data-name="Layer 1" transform="translate(19.015 19.021)">
        <text id="H" transform="matrix(-0.805, -0.594, 0.594, -0.805, 69.219, 208.827)" font-size="20" font-family="RoxboroughCF-Regular, Roxborough CF"><tspan x="0" y="0">H</tspan></text>
        <text id="a" transform="translate(55.161 195.774) rotate(-133.92)" font-size="22" font-family="RoxboroughCF-Regular, Roxborough CF"><tspan x="0" y="0">a</tspan></text>
        <text id="r" transform="matrix(-0.598, -0.801, 0.801, -0.598, 43.056, 185.585)" font-size="22" font-family="RoxboroughCF-Regular, Roxborough CF"><tspan x="0" y="0">r</tspan></text>
        <text id="s" transform="matrix(-0.509, -0.861, 0.861, -0.509, 39.036, 177.16)" font-size="22" font-family="RoxboroughCF-Regular, Roxborough CF"><tspan x="0" y="0">s</tspan></text>
        <text id="h-2" data-name="h" transform="translate(33.116 167.401) rotate(-112.973)" font-size="22" font-family="RoxboroughCF-Regular, Roxborough CF"><tspan x="0" y="0">h</tspan></text>
        <text id="a-2" data-name="a" transform="translate(27.303 153.798) rotate(-104.452)" font-size="22" font-family="RoxboroughCF-Regular, Roxborough CF"><tspan x="0" y="0">a</tspan></text>
        <text id="c" transform="matrix(-0.06, -0.998, 0.998, -0.06, 21.806, 134.253)" font-size="21" font-family="RoxboroughCF-Regular, Roxborough CF"><tspan x="0" y="0">c</tspan></text>
        <text id="o" transform="translate(21.93 121.403) rotate(-85.426)" font-size="22" font-family="RoxboroughCF-Regular, Roxborough CF"><tspan x="0" y="0">o</tspan></text>
        <text id="u" transform="translate(23.076 106.398) rotate(-76.661)" font-size="22" font-family="RoxboroughCF-Regular, Roxborough CF"><tspan x="0" y="0">u</tspan></text>
        <text id="t" transform="matrix(0.34, -0.94, 0.94, 0.34, 26.141, 92.294)" font-size="22" font-family="RoxboroughCF-Regular, Roxborough CF"><tspan x="0" y="0">t</tspan></text>
        <text id="u-2" data-name="u" transform="translate(29.175 84.163) rotate(-63.56)" font-size="22" font-family="RoxboroughCF-Regular, Roxborough CF"><tspan x="0" y="0">u</tspan></text>
        <text id="r-2" data-name="r" transform="matrix(0.552, -0.834, 0.834, 0.552, 35.863, 71.536)" font-size="22" font-family="RoxboroughCF-Regular, Roxborough CF"><tspan x="0" y="0">r</tspan></text>
        <text id="e" transform="matrix(0.637, -0.771, 0.771, 0.637, 40.78, 63.348)" font-size="22" font-family="RoxboroughCF-Regular, Roxborough CF"><tspan x="0" y="0">e</tspan></text>
        <text id="H-3" data-name="H" transform="translate(68.037 34.903) rotate(-26.17)" font-size="20" font-family="RoxboroughCF-Regular, Roxborough CF"><tspan x="0" y="0">H</tspan></text>
        <text id="a-3" data-name="a" transform="translate(86.054 28.456) rotate(-16.44)" font-size="22" font-family="RoxboroughCF-Regular, Roxborough CF"><tspan x="0" y="0">a</tspan></text>
        <text id="r-3" data-name="r" transform="matrix(0.987, -0.161, 0.161, 0.987, 100.451, 24.081)" font-size="22" font-family="RoxboroughCF-Regular, Roxborough CF"><tspan x="0" y="0">r</tspan></text>
        <text id="s-2" data-name="s" transform="translate(110.018 22.722) rotate(-3.26)" font-size="22" font-family="RoxboroughCF-Regular, Roxborough CF"><tspan x="0" y="0">s</tspan></text>
        <text id="h-4" data-name="h" transform="translate(121.439 21.939) rotate(4.27)" font-size="22" font-family="RoxboroughCF-Regular, Roxborough CF"><tspan x="0" y="0">h</tspan></text>
        <text id="a-4" data-name="a" transform="translate(136.174 23.01) rotate(12.78)" font-size="22" font-family="RoxboroughCF-Regular, Roxborough CF"><tspan x="0" y="0">a</tspan></text>
        <text id="c-2" data-name="c" transform="matrix(0.912, 0.411, -0.411, 0.912, 156.073, 27.106)" font-size="21" font-family="RoxboroughCF-Regular, Roxborough CF"><tspan x="0" y="0">c</tspan></text>
        <text id="o-2" data-name="o" transform="matrix(0.849, 0.529, -0.529, 0.849, 167.431, 33.141)" font-size="22" font-family="RoxboroughCF-Regular, Roxborough CF"><tspan x="0" y="0">o</tspan></text>
        <text id="u-3" data-name="u" transform="translate(180.067 41.115) rotate(39.58)" font-size="22" font-family="RoxboroughCF-Regular, Roxborough CF"><tspan x="0" y="0">u</tspan></text>
        <text id="t-2" data-name="t" transform="matrix(0.682, 0.732, -0.732, 0.682, 191.927, 50.267)" font-size="22" font-family="RoxboroughCF-Regular, Roxborough CF"><tspan x="0" y="0">t</tspan></text>
        <text id="u-4" data-name="u" transform="translate(197.108 56.689) rotate(53.931)" font-size="22" font-family="RoxboroughCF-Regular, Roxborough CF"><tspan x="0" y="0">u</tspan></text>
        <text id="r-4" data-name="r" transform="matrix(0.486, 0.874, -0.874, 0.486, 207.667, 68.81)" font-size="22" font-family="RoxboroughCF-Regular, Roxborough CF"><tspan x="0" y="0">r</tspan></text>
        <text id="e-2" data-name="e" transform="translate(210.34 76.585) rotate(67.15)" font-size="22" font-family="RoxboroughCF-Regular, Roxborough CF"><tspan x="0" y="0">e</tspan></text>
        <text id="H-5" data-name="H" transform="translate(223.241 119.051) rotate(94.004)" font-size="20" font-family="RoxboroughCF-Regular, Roxborough CF"><tspan x="0" y="0">H</tspan></text>
        <text id="a-5" data-name="a" transform="translate(219.767 137.814) rotate(103.73)" font-size="22" font-family="RoxboroughCF-Regular, Roxborough CF"><tspan x="0" y="0">a</tspan></text>
        <text id="r-5" data-name="r" transform="translate(215.776 153.613) rotate(111.161)" font-size="22" font-family="RoxboroughCF-Regular, Roxborough CF"><tspan x="0" y="0">r</tspan></text>
        <text id="s-3" data-name="s" transform="translate(212.663 161.401) rotate(117.06)" font-size="22" font-family="RoxboroughCF-Regular, Roxborough CF"><tspan x="0" y="0">s</tspan></text>
        <text id="h-6" data-name="h" transform="translate(207.546 171.674) rotate(124.66)" font-size="22" font-family="RoxboroughCF-Regular, Roxborough CF"><tspan x="0" y="0">h</tspan></text>
        <text id="a-6" data-name="a" transform="matrix(-0.682, 0.732, -0.732, -0.682, 199.135, 183.863)" font-size="22" font-family="RoxboroughCF-Regular, Roxborough CF"><tspan x="0" y="0">a</tspan></text>
        <text id="c-3" data-name="c" transform="translate(185.602 198.968) rotate(143.931)" font-size="21" font-family="RoxboroughCF-Regular, Roxborough CF"><tspan x="0" y="0">c</tspan></text>
        <text id="o-3" data-name="o" transform="translate(174.716 205.732) rotate(152.11)" font-size="22" font-family="RoxboroughCF-Regular, Roxborough CF"><tspan x="0" y="0">o</tspan></text>
        <text id="u-5" data-name="u" transform="translate(161.419 212.766) rotate(160.8)" font-size="22" font-family="RoxboroughCF-Regular, Roxborough CF"><tspan x="0" y="0">u</tspan></text>
        <text id="t-3" data-name="t" transform="matrix(-0.976, 0.218, -0.218, -0.976, 146.87, 218.436)" font-size="22" font-family="RoxboroughCF-Regular, Roxborough CF"><tspan x="0" y="0">t</tspan></text>
        <text id="u-6" data-name="u" transform="translate(139.321 219.489) rotate(174.232)" font-size="22" font-family="RoxboroughCF-Regular, Roxborough CF"><tspan x="0" y="0">u</tspan></text>
        <text id="r-6" data-name="r" transform="translate(123.232 220.907) rotate(-178.854)" font-size="22" font-family="RoxboroughCF-Regular, Roxborough CF"><tspan x="0" y="0">r</tspan></text>
        <text id="e-3" data-name="e" transform="translate(115.526 220.865) rotate(-172.519)" font-size="22" font-family="RoxboroughCF-Regular, Roxborough CF"><tspan x="0" y="0">e</tspan></text>
        <rect id="Rectangle_27" data-name="Rectangle 27" width="8.191" height="8.191" transform="translate(51.191 36.579)"/>
        <rect id="Rectangle_28" data-name="Rectangle 28" width="8.191" height="8.191" transform="matrix(0.786, 0.618, -0.618, 0.786, 224.826, 95.839)"/>
        <rect id="Rectangle_29" data-name="Rectangle 29" width="8.191" height="8.191" transform="translate(80.03 217.893) rotate(-24.23)"/>
      </g>
    </g>
    <g id="Group_17" data-name="Group 17" transform="translate(-2168.589 3125.61)">
      <path id="Path_3" data-name="Path 3" d="M229.881,60.37A38.572,38.572,0,0,1,223.217,81.5c-.253.368-.506.767-.767,1.089a38.549,38.549,0,0,1-62.229.161c-.268-.36-.529-.767-.767-1.1a38.641,38.641,0,0,1-6.794-21.916c0-.713,0-1.411.061-2.109.575-.5,1.135-1.012,1.679-1.534a36.052,36.052,0,0,0-.176,3.642A37,37,0,0,0,161,81.144a22.86,22.86,0,0,0,13.4-13.082,9.6,9.6,0,0,1-4.126-15.782c.383.261.767.514,1.173.767a8.228,8.228,0,0,0,3.412,13.727,22.829,22.829,0,0,0,1.074-7.04,23.283,23.283,0,0,0-.437-4.478c.46.215.928.422,1.4.621a23.654,23.654,0,0,1,.314,3.834A24.1,24.1,0,0,1,176.072,67c-.146.452-.3.89-.46,1.327a24.094,24.094,0,0,1-13.8,13.857,36.993,36.993,0,0,0,59.147-.2A24.117,24.117,0,0,1,207.6,68.33c-.153-.4-.291-.767-.422-1.212a24.171,24.171,0,0,1-.89-11.058c.468-.184.936-.383,1.4-.59a23.052,23.052,0,0,0,.767,11.372,8.343,8.343,0,0,0,3.65-13.711q.544-.33,1.081-.69a9.609,9.609,0,0,1-4.3,15.59,22.844,22.844,0,0,0,12.868,12.9,37.069,37.069,0,0,0,6.58-21.2c0-.169,0-.337,0-.5C228.838,59.634,229.344,60.01,229.881,60.37Z" transform="translate(2202.36 -178.385)"/>
      <path id="Path_4" data-name="Path 4" d="M243.306,160.974a23.9,23.9,0,0,0-9.524-5.958h0A24.017,24.017,0,0,0,213.4,157.5a24.079,24.079,0,0,1-14.884-14.317,24.033,24.033,0,0,1,17.032-3.32h.038l.322.046h.069c.483.092.966.2,1.434.33h.345a4.785,4.785,0,0,0,2.63-8.788h0c-.621-.238-1.242-.475-1.856-.729h0a57.912,57.912,0,0,1-11.035-5.951c-.821-.567-1.633-1.158-2.423-1.771-.215-.153-.422-.314-.629-.475-.92-.767-1.825-1.488-2.707-2.3l-1.227-1.127c-.606-.575-1.2-1.166-1.787-1.764h0a9.517,9.517,0,0,0-5.767-1.925h-.483a9.5,9.5,0,0,0-5.728,2.3,23.964,23.964,0,0,0-12.76-7.369,23.551,23.551,0,0,0-5.023-.529,15.417,15.417,0,0,0-2.3.115,24.056,24.056,0,0,0,15.283,16.311,58.28,58.28,0,0,0-8.159,29.853v1.35a58.28,58.28,0,0,0,4.823,22h0q.828,1.909,1.787,3.735a57.393,57.393,0,0,0,3.5,5.843h0c.1.153.207.307.314.452a57.688,57.688,0,0,0,11.763,1.2c1.534,0,3.014-.061,4.5-.169,1.695-.13,3.374-.337,5.023-.613q1.994-.322,3.926-.767a58.405,58.405,0,0,0,6.794-2.063h0a57.742,57.742,0,0,0,10.859-5.368,58.419,58.419,0,0,0,18.289-18.4A24.857,24.857,0,0,0,243.306,160.974Z" transform="translate(2199.096 -191.798)"/>
      <rect id="Rectangle_5" data-name="Rectangle 5" width="1.733" height="3.873" transform="translate(2390.954 -80.186)"/>
    </g>
  </g>
</svg>
