<svg xmlns="http://www.w3.org/2000/svg" xmlns:xlink="http://www.w3.org/1999/xlink" width="476" height="476" viewBox="0 0 476 476">
  <defs>
    <clipPath id="clip-path">
      <rect id="Rectangle_108" data-name="Rectangle 108" width="476" height="476" transform="translate(-12808 4237)" fill="#fff" stroke="#707070" stroke-width="1"/>
    </clipPath>
  </defs>
  <g id="Mask_Group_4" data-name="Mask Group 4" transform="translate(4713 12808) rotate(90)" opacity="0.17" clip-path="url(#clip-path)">
    <g id="Group_103" data-name="Group 103" transform="translate(-1453 -146)">
      <g id="Ellipse_10" data-name="Ellipse 10" transform="translate(-11831 3907)" fill="none" stroke="#a64d00" stroke-width="5">
        <circle cx="476" cy="476" r="476" stroke="none"/>
        <circle cx="476" cy="476" r="473.5" fill="none"/>
      </g>
      <g id="Ellipse_11" data-name="Ellipse 11" transform="translate(-11782 3956)" fill="none" stroke="#a64d00" stroke-width="5">
        <circle cx="427" cy="427" r="427" stroke="none"/>
        <circle cx="427" cy="427" r="424.5" fill="none"/>
      </g>
      <g id="Ellipse_12" data-name="Ellipse 12" transform="translate(-11728 4010)" fill="none" stroke="#a64d00" stroke-width="5">
        <circle cx="373" cy="373" r="373" stroke="none"/>
        <circle cx="373" cy="373" r="370.5" fill="none"/>
      </g>
      <g id="Ellipse_13" data-name="Ellipse 13" transform="translate(-11661 4077)" fill="none" stroke="#a64d00" stroke-width="5">
        <circle cx="306" cy="306" r="306" stroke="none"/>
        <circle cx="306" cy="306" r="303.5" fill="none"/>
      </g>
      <g id="Ellipse_14" data-name="Ellipse 14" transform="translate(-11595 4143)" fill="none" stroke="#a64d00" stroke-width="5">
        <circle cx="240" cy="240" r="240" stroke="none"/>
        <circle cx="240" cy="240" r="237.5" fill="none"/>
      </g>
      <g id="Ellipse_15" data-name="Ellipse 15" transform="translate(-11514 4224)" fill="none" stroke="#a64d00" stroke-width="5">
        <circle cx="159" cy="159" r="159" stroke="none"/>
        <circle cx="159" cy="159" r="156.5" fill="none"/>
      </g>
      <g id="Ellipse_16" data-name="Ellipse 16" transform="translate(-11437 4301)" fill="none" stroke="#a64d00" stroke-width="5">
        <circle cx="82" cy="82" r="82" stroke="none"/>
        <circle cx="82" cy="82" r="79.5" fill="none"/>
      </g>
    </g>
  </g>
</svg>
