<svg xmlns="http://www.w3.org/2000/svg" width="185.733" height="185.527" viewBox="0 0 185.733 185.527">
  <g id="Layer_2" data-name="Layer 2" transform="translate(-19.015 -18.946)">
    <g id="Layer_1" data-name="Layer 1" transform="translate(19.015 19.021)">
      <text id="H" transform="matrix(-0.805, -0.594, 0.594, -0.805, 53.295, 158.904)" fill="#231f20" font-size="16" font-family="RoxboroughCF-Heavy, Roxborough CF" font-weight="800"><tspan x="0" y="0">H</tspan></text>
      <text id="a" transform="translate(41.55 150.075) rotate(-133.92)" fill="#231f20" font-size="16" font-family="RoxboroughCF-Heavy, Roxborough CF" font-weight="800"><tspan x="0" y="0">a</tspan></text>
      <text id="r" transform="matrix(-0.598, -0.801, 0.801, -0.598, 33.381, 141.308)" fill="#231f20" font-size="14" font-family="RoxboroughCF-Heavy, Roxborough CF" font-weight="800"><tspan x="0" y="0">r</tspan></text>
      <text id="s" transform="matrix(-0.509, -0.861, 0.861, -0.509, 29.983, 135.202)" fill="#231f20" font-size="17" font-family="RoxboroughCF-Heavy, Roxborough CF" font-weight="800"><tspan x="0" y="0">s</tspan></text>
      <text id="h-2" data-name="h" transform="translate(25.474 127.772) rotate(-112.973)" fill="#231f20" font-size="17" font-family="RoxboroughCF-Heavy, Roxborough CF" font-weight="800"><tspan x="0" y="0">h</tspan></text>
      <text id="a-2" data-name="a" transform="translate(20.076 117.66) rotate(-104.452)" fill="#231f20" font-size="16" font-family="RoxboroughCF-Heavy, Roxborough CF" font-weight="800"><tspan x="0" y="0">a</tspan></text>
      <text id="c" transform="matrix(-0.06, -0.998, 0.998, -0.06, 17.614, 102.476)" fill="#231f20" font-size="17" font-family="RoxboroughCF-Heavy, Roxborough CF" font-weight="800"><tspan x="0" y="0">c</tspan></text>
      <text id="o" transform="translate(15.949 92.655) rotate(-85.426)" fill="#231f20" font-size="16" font-family="RoxboroughCF-Heavy, Roxborough CF" font-weight="800"><tspan x="0" y="0">o</tspan></text>
      <text id="u" transform="translate(16.844 81.074) rotate(-76.661)" fill="#231f20" font-size="16" font-family="RoxboroughCF-Heavy, Roxborough CF" font-weight="800"><tspan x="0" y="0">u</tspan></text>
      <text id="t" transform="matrix(0.34, -0.94, 0.94, 0.34, 19.887, 69.186)" fill="#231f20" font-size="14" font-family="RoxboroughCF-Heavy, Roxborough CF" font-weight="800"><tspan x="0" y="0">t</tspan></text>
      <text id="u-2" data-name="u" transform="translate(21.564 63.921) rotate(-63.56)" fill="#231f20" font-size="16" font-family="RoxboroughCF-Heavy, Roxborough CF" font-weight="800"><tspan x="0" y="0">u</tspan></text>
      <text id="r-2" data-name="r" transform="matrix(0.552, -0.834, 0.834, 0.552, 27.409, 52.716)" fill="#231f20" font-size="14" font-family="RoxboroughCF-Heavy, Roxborough CF" font-weight="800"><tspan x="0" y="0">r</tspan></text>
      <text id="e" transform="matrix(0.637, -0.771, 0.771, 0.637, 30.527, 47.87)" fill="#231f20" font-size="16" font-family="RoxboroughCF-Heavy, Roxborough CF" font-weight="800"><tspan x="0" y="0">e</tspan></text>
      <text id="H-3" data-name="H" transform="translate(52.282 27.307) rotate(-26.17)" fill="#231f20" font-size="16" font-family="RoxboroughCF-Heavy, Roxborough CF" font-weight="800"><tspan x="0" y="0">H</tspan></text>
      <text id="a-3" data-name="a" transform="translate(65.495 20.964) rotate(-16.44)" fill="#231f20" font-size="16" font-family="RoxboroughCF-Heavy, Roxborough CF" font-weight="800"><tspan x="0" y="0">a</tspan></text>
      <text id="r-3" data-name="r" transform="matrix(0.987, -0.161, 0.161, 0.987, 77.716, 17.182)" fill="#231f20" font-size="14" font-family="RoxboroughCF-Heavy, Roxborough CF" font-weight="800"><tspan x="0" y="0">r</tspan></text>
      <text id="s-2" data-name="s" transform="translate(84.036 17.551) rotate(-3.26)" fill="#231f20" font-size="17" font-family="RoxboroughCF-Heavy, Roxborough CF" font-weight="800"><tspan x="0" y="0">s</tspan></text>
      <text id="h-4" data-name="h" transform="translate(92.732 16.953) rotate(4.27)" fill="#231f20" font-size="17" font-family="RoxboroughCF-Heavy, Roxborough CF" font-weight="800"><tspan x="0" y="0">h</tspan></text>
      <text id="a-4" data-name="a" transform="translate(104.178 16.791) rotate(12.78)" fill="#231f20" font-size="16" font-family="RoxboroughCF-Heavy, Roxborough CF" font-weight="800"><tspan x="0" y="0">a</tspan></text>
      <text id="c-2" data-name="c" transform="matrix(0.912, 0.411, -0.411, 0.912, 118.803, 21.579)" fill="#231f20" font-size="17" font-family="RoxboroughCF-Heavy, Roxborough CF" font-weight="800"><tspan x="0" y="0">c</tspan></text>
      <text id="o-2" data-name="o" transform="matrix(0.849, 0.529, -0.529, 0.849, 128.297, 24.63)" fill="#231f20" font-size="16" font-family="RoxboroughCF-Heavy, Roxborough CF" font-weight="800"><tspan x="0" y="0">o</tspan></text>
      <text id="u-3" data-name="u" transform="translate(138.034 30.782) rotate(39.58)" fill="#231f20" font-size="16" font-family="RoxboroughCF-Heavy, Roxborough CF" font-weight="800"><tspan x="0" y="0">u</tspan></text>
      <text id="t-2" data-name="t" transform="matrix(0.682, 0.732, -0.732, 0.682, 146.942, 38.386)" fill="#231f20" font-size="14" font-family="RoxboroughCF-Heavy, Roxborough CF" font-weight="800"><tspan x="0" y="0">t</tspan></text>
      <text id="u-4" data-name="u" transform="translate(151.186 42.823) rotate(53.931)" fill="#231f20" font-size="16" font-family="RoxboroughCF-Heavy, Roxborough CF" font-weight="800"><tspan x="0" y="0">u</tspan></text>
      <text id="r-4" data-name="r" transform="matrix(0.486, 0.874, -0.874, 0.486, 158.336, 52.705)" fill="#231f20" font-size="14" font-family="RoxboroughCF-Heavy, Roxborough CF" font-weight="800"><tspan x="0" y="0">r</tspan></text>
      <text id="e-2" data-name="e" transform="translate(161.383 58.179) rotate(67.15)" fill="#231f20" font-size="16" font-family="RoxboroughCF-Heavy, Roxborough CF" font-weight="800"><tspan x="0" y="0">e</tspan></text>
      <text id="H-5" data-name="H" transform="translate(169.773 90.872) rotate(94.004)" fill="#231f20" font-size="16" font-family="RoxboroughCF-Heavy, Roxborough CF" font-weight="800"><tspan x="0" y="0">H</tspan></text>
      <text id="a-5" data-name="a" transform="translate(168.622 105.443) rotate(103.73)" fill="#231f20" font-size="16" font-family="RoxboroughCF-Heavy, Roxborough CF" font-weight="800"><tspan x="0" y="0">a</tspan></text>
      <text id="r-5" data-name="r" transform="translate(164.872 117.44) rotate(111.161)" fill="#231f20" font-size="14" font-family="RoxboroughCF-Heavy, Roxborough CF" font-weight="800"><tspan x="0" y="0">r</tspan></text>
      <text id="s-3" data-name="s" transform="translate(162.241 123.177) rotate(117.06)" fill="#231f20" font-size="17" font-family="RoxboroughCF-Heavy, Roxborough CF" font-weight="800"><tspan x="0" y="0">s</tspan></text>
      <text id="h-6" data-name="h" transform="translate(158.347 131) rotate(124.66)" fill="#231f20" font-size="17" font-family="RoxboroughCF-Heavy, Roxborough CF" font-weight="800"><tspan x="0" y="0">h</tspan></text>
      <text id="a-6" data-name="a" transform="matrix(-0.682, 0.732, -0.732, -0.682, 152.672, 140.969)" fill="#231f20" font-size="16" font-family="RoxboroughCF-Heavy, Roxborough CF" font-weight="800"><tspan x="0" y="0">a</tspan></text>
      <text id="c-3" data-name="c" transform="translate(141.184 151.181) rotate(143.931)" fill="#231f20" font-size="17" font-family="RoxboroughCF-Heavy, Roxborough CF" font-weight="800"><tspan x="0" y="0">c</tspan></text>
      <text id="o-3" data-name="o" transform="translate(133.811 157.833) rotate(152.11)" fill="#231f20" font-size="16" font-family="RoxboroughCF-Heavy, Roxborough CF" font-weight="800"><tspan x="0" y="0">o</tspan></text>
      <text id="u-5" data-name="u" transform="translate(123.544 163.254) rotate(160.8)" fill="#231f20" font-size="16" font-family="RoxboroughCF-Heavy, Roxborough CF" font-weight="800"><tspan x="0" y="0">u</tspan></text>
      <text id="t-3" data-name="t" transform="matrix(-0.976, 0.218, -0.218, -0.976, 111.614, 166.281)" fill="#231f20" font-size="14" font-family="RoxboroughCF-Heavy, Roxborough CF" font-weight="800"><tspan x="0" y="0">t</tspan></text>
      <text id="u-6" data-name="u" transform="translate(106.485 168.428) rotate(174.232)" fill="#231f20" font-size="16" font-family="RoxboroughCF-Heavy, Roxborough CF" font-weight="800"><tspan x="0" y="0">u</tspan></text>
      <text id="r-6" data-name="r" transform="translate(93.553 168.975) rotate(-178.854)" fill="#231f20" font-size="14" font-family="RoxboroughCF-Heavy, Roxborough CF" font-weight="800"><tspan x="0" y="0">r</tspan></text>
      <text id="e-3" data-name="e" transform="translate(88.127 169.477) rotate(-172.519)" fill="#231f20" font-size="16" font-family="RoxboroughCF-Heavy, Roxborough CF" font-weight="800"><tspan x="0" y="0">e</tspan></text>
      <rect id="Rectangle_27" data-name="Rectangle 27" width="6.255" height="6.255" transform="translate(39.096 27.936)" fill="#231f20"/>
      <rect id="Rectangle_28" data-name="Rectangle 28" width="6.255" height="6.255" transform="matrix(0.786, 0.618, -0.618, 0.786, 171.707, 73.195)" fill="#231f20"/>
      <rect id="Rectangle_29" data-name="Rectangle 29" width="6.255" height="6.255" transform="translate(61.122 166.412) rotate(-24.23)" fill="#231f20"/>
    </g>
  </g>
</svg>
