<svg xmlns="http://www.w3.org/2000/svg" width="761" height="783.273" viewBox="0 0 761 783.273">
  <g id="Group_146" data-name="Group 146" transform="translate(3996 2386.137)">
    <path id="Path_87" data-name="Path 87" d="M439.689,82.351a143.373,143.373,0,0,1-24.769,78.527c-.941,1.368-1.881,2.85-2.85,4.047a143.286,143.286,0,0,1-231.3.6c-1-1.34-1.967-2.85-2.85-4.076A143.627,143.627,0,0,1,152.66,79.985c0-2.651,0-5.245.228-7.838,2.138-1.853,4.219-3.762,6.242-5.7a133.953,133.953,0,0,0-.656,13.539,137.528,137.528,0,0,0,25.169,79.581,84.968,84.968,0,0,0,49.8-48.627A35.686,35.686,0,0,1,218.1,52.28c1.425.969,2.85,1.91,4.361,2.85a30.584,30.584,0,0,0,12.684,51.021,84.846,84.846,0,0,0,3.991-26.166,86.533,86.533,0,0,0-1.625-16.646c1.71.8,3.449,1.568,5.188,2.309A87.94,87.94,0,0,1,243.871,79.9a89.581,89.581,0,0,1-4.19,27.107c-.542,1.682-1.112,3.306-1.71,4.931a89.557,89.557,0,0,1-51.306,51.506,137.5,137.5,0,0,0,219.846-.741,89.643,89.643,0,0,1-49.653-50.764c-.57-1.482-1.083-2.85-1.568-4.5a89.844,89.844,0,0,1-3.306-41.1c1.739-.684,3.478-1.425,5.188-2.195a85.684,85.684,0,0,0,2.85,42.27,31.012,31.012,0,0,0,13.568-50.964q2.024-1.226,4.019-2.565a35.715,35.715,0,0,1-15.991,57.947,84.912,84.912,0,0,0,47.829,47.943A137.785,137.785,0,0,0,433.9,79.985c0-.627,0-1.254,0-1.853C435.812,79.615,437.693,81.011,439.689,82.351Z" transform="translate(-3929.308 -2438.417)" fill="#231f20"/>
    <path id="Path_88" data-name="Path 88" d="M451.551,299.984a88.848,88.848,0,0,0-35.4-22.147h0a89.273,89.273,0,0,0-75.762,9.235,89.5,89.5,0,0,1-55.325-53.216,89.33,89.33,0,0,1,63.306-12.342h.142l1.2.171h.257c1.8.342,3.591.741,5.33,1.226h1.283a17.786,17.786,0,0,0,9.777-32.665h0c-2.309-.884-4.618-1.767-6.9-2.708h0A215.26,215.26,0,0,1,318.44,165.42c-3.05-2.109-6.071-4.3-9.007-6.584-.8-.57-1.568-1.169-2.337-1.767-3.421-2.85-6.784-5.53-10.062-8.551l-4.56-4.19c-2.252-2.138-4.475-4.333-6.641-6.556h0a35.373,35.373,0,0,0-21.435-7.154h-1.8a35.316,35.316,0,0,0-21.292,8.551,89.073,89.073,0,0,0-47.43-27.392,87.538,87.538,0,0,0-18.67-1.967,57.3,57.3,0,0,0-8.551.428,89.415,89.415,0,0,0,56.807,60.627A216.626,216.626,0,0,0,193.14,281.828v5.017a216.625,216.625,0,0,0,17.928,81.776h0q3.078,7.1,6.641,13.881a213.317,213.317,0,0,0,13,21.72h0c.371.57.77,1.14,1.169,1.682a214.429,214.429,0,0,0,43.724,4.447c5.7,0,11.2-.228,16.731-.627,6.3-.484,12.542-1.254,18.67-2.28q7.411-1.2,14.594-2.85a217.1,217.1,0,0,0,25.254-7.667h0a214.637,214.637,0,0,0,40.361-19.952,217.141,217.141,0,0,0,67.98-68.408A92.4,92.4,0,0,0,451.551,299.984ZM260.807,174.57a3.1,3.1,0,0,0,.228.8.4.4,0,0,1,0,.2h-.77c.228-.371.37-.741.542-1.083Z" transform="translate(-3903.403 -2331.967)" fill="#231f20"/>
    <rect id="Rectangle_162" data-name="Rectangle 162" width="6.442" height="14.394" transform="translate(-3643.08 -2215.459)" fill="#231f20"/>
    <text id="HARSHA" transform="translate(-3996 -1724.797)" fill="#231f20" font-size="181" font-family="Rottaries-Regular, Rottaries" letter-spacing="0.1em"><tspan x="0" y="0">HARSHA</tspan></text>
    <text id="COUTURE" transform="translate(-3866.633 -1630.863)" fill="#231f20" font-size="81" font-family="Poppins-Regular, Poppins" letter-spacing="0.2em"><tspan x="0" y="0">COUTURE</tspan></text>
  </g>
</svg>
