<svg xmlns="http://www.w3.org/2000/svg" width="509.797" height="710.748" viewBox="0 0 509.797 710.748">
  <g id="Group_5" data-name="Group 5" transform="translate(-2355.02 126.105)">
    <path id="Path_3" data-name="Path 3" d="M587.56,97.843a217.234,217.234,0,0,1-37.53,118.982c-1.425,2.073-2.85,4.319-4.319,6.133a217.1,217.1,0,0,1-350.468.907c-1.512-2.03-2.98-4.319-4.319-6.176A217.623,217.623,0,0,1,152.66,94.259c0-4.017,0-7.947.345-11.877,3.239-2.807,6.392-5.7,9.458-8.638a203.01,203.01,0,0,0-.993,20.514,208.38,208.38,0,0,0,38.135,120.58,128.742,128.742,0,0,0,75.449-73.678,54.071,54.071,0,0,1-23.235-88.88c2.159,1.468,4.319,2.894,6.608,4.319A46.34,46.34,0,0,0,277.645,133.9a128.568,128.568,0,0,0,6.047-39.646,131.123,131.123,0,0,0-2.462-25.222c2.591,1.209,5.226,2.375,7.86,3.5a133.231,133.231,0,0,1,1.771,21.594,135.74,135.74,0,0,1-6.349,41.072c-.82,2.548-1.684,5.01-2.591,7.471a135.7,135.7,0,0,1-77.738,78.04,208.338,208.338,0,0,0,333.107-1.123,135.826,135.826,0,0,1-75.233-76.917c-.864-2.246-1.641-4.319-2.375-6.824a136.125,136.125,0,0,1-5.01-62.277c2.635-1.037,5.269-2.159,7.86-3.325a129.823,129.823,0,0,0,4.319,64.047,46.988,46.988,0,0,0,20.557-77.22q3.066-1.857,6.089-3.887a54.114,54.114,0,0,1-24.228,87.8,128.656,128.656,0,0,0,72.469,72.642A208.769,208.769,0,0,0,578.793,94.258c0-.95,0-1.9,0-2.807C581.687,93.7,584.537,95.813,587.56,97.843Z" transform="translate(2202.36 -178.385)" fill="#fff"/>
    <path id="Path_4" data-name="Path 4" d="M598.321,397.959A134.616,134.616,0,0,0,544.682,364.4h0a135.264,135.264,0,0,0-114.793,13.993,135.609,135.609,0,0,1-83.827-80.631,135.351,135.351,0,0,1,95.92-18.7h.216l1.814.259h.389c2.721.518,5.442,1.123,8.076,1.857h1.943a26.949,26.949,0,0,0,14.813-49.493h0c-3.5-1.339-7-2.678-10.451-4.1h0a326.153,326.153,0,0,1-62.147-33.514c-4.621-3.2-9.2-6.521-13.647-9.976-1.209-.864-2.375-1.771-3.541-2.678-5.182-4.319-10.279-8.378-15.245-12.956l-6.91-6.349c-3.412-3.239-6.781-6.565-10.063-9.933h0a53.6,53.6,0,0,0-32.477-10.84H312.03a53.51,53.51,0,0,0-32.261,12.956,134.962,134.962,0,0,0-71.864-41.5,132.628,132.628,0,0,0-28.288-2.98,86.824,86.824,0,0,0-12.956.648,135.48,135.48,0,0,0,86.073,91.86,328.228,328.228,0,0,0-45.952,168.13v7.6a328.227,328.227,0,0,0,27.165,123.906h0q4.664,10.754,10.063,21.032A323.229,323.229,0,0,0,263.7,555.9h0c.561.864,1.166,1.727,1.771,2.548a324.9,324.9,0,0,0,66.25,6.737c8.637,0,16.973-.346,25.351-.95,9.544-.734,19-1.9,28.288-3.455q11.229-1.814,22.112-4.319a328.933,328.933,0,0,0,38.264-11.617h0a325.2,325.2,0,0,0,61.154-30.231,329.007,329.007,0,0,0,103-103.651A139.992,139.992,0,0,0,598.321,397.959Z" transform="translate(2248.823 12.543)" fill="none" stroke="#fff" stroke-width="10"/>
    <rect id="Rectangle_5" data-name="Rectangle 5" width="9.76" height="21.81" transform="translate(2557.398 132.503)" fill="#fff"/>
  </g>
</svg>
